<?xml version="1.0" encoding="UTF-8" standalone="no"?>
<svg
   width="18"
   height="15"
   viewBox="0 0 18 15"
   fill="none"
   version="1.1"
   id="svg976"
   sodipodi:docname="DownIco.svg"
   inkscape:version="1.2.2 (b0a8486541, 2022-12-01)"
   xmlns:inkscape="http://www.inkscape.org/namespaces/inkscape"
   xmlns:sodipodi="http://sodipodi.sourceforge.net/DTD/sodipodi-0.dtd"
   xmlns="http://www.w3.org/2000/svg"
   xmlns:svg="http://www.w3.org/2000/svg">
  <defs
     id="defs980" />
  <sodipodi:namedview
     id="namedview978"
     pagecolor="#505050"
     bordercolor="#ffffff"
     borderopacity="1"
     inkscape:showpageshadow="0"
     inkscape:pageopacity="0"
     inkscape:pagecheckerboard="1"
     inkscape:deskcolor="#505050"
     showgrid="false"
     inkscape:zoom="29.033333"
     inkscape:cx="12.330654"
     inkscape:cy="6.4580941"
     inkscape:window-width="1920"
     inkscape:window-height="1056"
     inkscape:window-x="0"
     inkscape:window-y="0"
     inkscape:window-maximized="1"
     inkscape:current-layer="svg976" />
  <path
     d="M1.8 15C1.305 15 0.881101 14.8162 0.528301 14.4487C0.175501 14.0812 -0.000598472 13.64 1.52801e-06 13.125V1.875C1.52801e-06 1.35938 0.176402 0.917814 0.529201 0.550314C0.882001 0.182814 1.3056 -0.000623408 1.8 1.59168e-06H16.2C16.695 1.59168e-06 17.1189 0.183751 17.4717 0.551251C17.8245 0.918751 18.0006 1.36 18 1.875V13.125C18 13.6406 17.8236 14.0822 17.4708 14.4497C17.118 14.8172 16.6944 15.0006 16.2 15H1.8ZM9 8.27344C9.075 8.27344 9.1539 8.26156 9.2367 8.23781C9.3195 8.21406 9.3981 8.17906 9.4725 8.13281L15.84 3.98438C15.96 3.90625 16.05 3.80844 16.11 3.69094C16.17 3.57344 16.2 3.44469 16.2 3.30469C16.2 2.99219 16.0725 2.75781 15.8175 2.60156C15.5625 2.44531 15.3 2.45313 15.03 2.625L9 6.5625L2.97 2.625C2.7 2.45313 2.4375 2.44938 2.1825 2.61375C1.9275 2.77813 1.8 3.00844 1.8 3.30469C1.8 3.46094 1.83 3.59781 1.89 3.71531C1.95 3.83281 2.04 3.9225 2.16 3.98438L8.5275 8.13281C8.6025 8.17969 8.6814 8.215 8.7642 8.23875C8.847 8.2625 8.9256 8.27406 9 8.27344Z"
     fill="white"
     id="path974" />
</svg>
