<svg width="18" height="18" viewBox="0 0 18 18" fill="none" xmlns="http://www.w3.org/2000/svg">
<path d="M0 6.65723C0 6.10494 0.447715 5.65723 1 5.65723H3.65717V11.7525H0.999999C0.447714 11.7525 0 11.3048 0 10.7525V6.65723Z" fill="white"/>
<path d="M4.87622 5.65717L12.9932 0.885724C13.6599 0.493854 14.5 0.974527 14.5 1.74781V15.738C14.5 16.5144 13.6538 16.9946 12.9873 16.5966L4.87622 11.7525V5.65717Z" fill="white"/>
<path fill-rule="evenodd" clip-rule="evenodd" d="M16.0658 5.19022C16.3238 4.974 16.7083 5.00788 16.9245 5.2659C17.6617 6.14559 18.0438 7.26452 17.996 8.40706C18.0438 9.54961 17.6617 10.6685 16.9245 11.5482C16.7083 11.8062 16.3238 11.8401 16.0658 11.6239C15.8078 11.4077 15.7739 11.0232 15.9901 10.7652C16.5379 10.1116 16.8178 9.28113 16.7771 8.43643C16.7761 8.41686 16.7761 8.39726 16.7771 8.37769C16.8178 7.53299 16.5379 6.70254 15.9901 6.04889C15.7739 5.79088 15.8078 5.40644 16.0658 5.19022Z" fill="white"/>
</svg>
