<svg width="17" height="18" viewBox="0 0 17 18" fill="none" xmlns="http://www.w3.org/2000/svg">
<path d="M16.0219 14.1697L15.8391 14.0084C15.3205 13.5463 14.8666 13.0165 14.4896 12.4331C14.0779 11.628 13.8311 10.7488 13.7638 9.847V7.19103C13.7673 5.77466 13.2535 4.40573 12.319 3.34146C11.3844 2.27719 10.0933 1.59082 8.68838 1.41132V0.717759C8.68838 0.527397 8.61275 0.344833 8.47815 0.210227C8.34354 0.0756208 8.16098 0 7.97062 0C7.78026 0 7.59769 0.0756208 7.46309 0.210227C7.32848 0.344833 7.25286 0.527397 7.25286 0.717759V1.42208C5.86049 1.61451 4.58504 2.30503 3.66274 3.36573C2.74043 4.42642 2.23378 5.78543 2.23661 7.19103V9.847C2.16927 10.7488 1.92251 11.628 1.51079 12.4331C1.14029 13.015 0.693669 13.5448 0.1828 14.0084L0 14.1697V15.6859H16.0219V14.1697Z" fill="white"/>
<path d="M6.59692 16.2505C6.64407 16.5913 6.81295 16.9035 7.07236 17.1295C7.33177 17.3555 7.6642 17.48 8.00825 17.48C8.3523 17.48 8.68472 17.3555 8.94414 17.1295C9.20355 16.9035 9.37242 16.5913 9.41957 16.2505H6.59692Z" fill="white"/>
</svg>
