<svg width="144" height="255" viewBox="0 0 144 255" fill="none" xmlns="http://www.w3.org/2000/svg">
<path fill-rule="evenodd" clip-rule="evenodd" d="M33.341 254.794C25.3439 254.791 20 249.153 20 242.316C20 235.48 25.3559 229.777 33.3286 229.794H108.671C116.644 229.776 122 235.48 122 242.316C122 249.153 116.657 254.791 108.659 254.794H33.341ZM33.3654 232.87C27.0342 232.881 23.1481 237.092 23.1481 242.3C23.1481 247.507 27.0098 251.753 33.3654 251.729H108.635C114.99 251.751 118.853 247.507 118.853 242.3C118.853 237.093 114.967 232.883 108.636 232.871L33.3654 232.87ZM112.683 237.266C113.259 237.266 113.545 237.46 113.545 237.844C113.545 238.108 113.38 238.307 113.105 238.376L113.556 239.272H113.01L112.624 238.45H112.384V239.272H111.893V237.266H112.683ZM112.638 236.481C111.634 236.481 110.818 237.293 110.818 238.293C110.818 239.293 111.634 240.104 112.638 240.104C113.643 240.104 114.459 239.293 114.459 238.293C114.459 237.293 113.643 236.481 112.638 236.481ZM114.111 238.294C114.111 239.102 113.451 239.759 112.638 239.759C111.826 239.759 111.166 239.102 111.166 238.294C111.166 237.485 111.826 236.829 112.638 236.829C113.451 236.829 114.111 237.484 114.111 238.294ZM112.384 238.156H112.623C112.904 238.156 113.04 238.071 113.04 237.872C113.04 237.663 112.894 237.573 112.599 237.573H112.384V238.156ZM71.2382 243.06C71.2324 242.374 71.2475 241.916 71.4737 241.525C71.7513 241.043 72.2622 240.813 72.7252 240.811H72.7239C73.1874 240.813 73.6979 241.042 73.9754 241.525C74.2017 241.918 74.211 242.375 74.2056 243.061L71.2377 243.06H71.2382ZM74.1937 245.42C74.1937 245.42 74.1964 245.455 74.1964 245.894C74.1964 247.325 73.2498 247.643 72.7239 247.643C72.1984 247.643 71.2355 247.325 71.2355 245.894C71.2355 245.465 71.2382 244.278 71.2382 244.278C71.2382 244.278 77.939 244.281 77.939 244.277C77.939 241.85 75.5834 239.84 72.6903 239.84C69.7967 239.84 67.4521 241.807 67.4521 244.234C67.4521 246.661 69.7967 248.627 72.6903 248.627C75.0906 248.627 77.1182 247.265 77.7371 245.417L74.1937 245.42V245.42ZM85.3862 239.97C86.7166 239.932 89.4145 240.798 89.3959 243.897C89.3932 244.447 89.3945 248.156 89.3945 248.156H85.8604V243.016C85.8604 242.334 85.2047 241.575 84.2348 241.575C83.2661 241.575 82.5454 242.334 82.5454 243.016C82.5454 243.35 82.5494 248.156 82.5494 248.156H79.0183L79.021 240.33L82.5511 240.327C82.5511 240.327 82.5472 240.957 82.5511 241.15C83.2311 240.505 84.2117 240.003 85.3862 239.97ZM56.4778 239.97C57.8082 239.932 60.506 240.798 60.4874 243.897C60.4848 244.447 60.4861 248.156 60.4861 248.156H56.952V243.016C56.952 242.334 56.2963 241.575 55.3263 241.575C54.3581 241.575 53.6374 242.334 53.6374 243.016C53.6374 243.35 53.6414 248.156 53.6414 248.156H50.1099L50.1086 240.33L53.6427 240.327C53.6427 240.327 53.6387 240.957 53.6427 241.15C54.3227 240.505 55.302 240.003 56.4778 239.97ZM97.0627 236.389H100.574V248.158H97.0574L97.056 247.705C95.6947 248.555 94.1585 248.554 92.9623 247.999C92.6414 247.85 90.5296 246.843 90.5296 244.119C90.5296 242.053 92.4882 239.797 95.0523 240.021C95.8961 240.095 96.4965 240.401 97.0653 240.719C97.0627 238.908 97.0627 236.389 97.0627 236.389V236.389ZM97.0883 244.205V242.806C97.0883 241.596 96.2485 241.288 95.696 241.288C95.1298 241.288 94.3006 241.597 94.3006 242.806L94.302 244.201L94.3006 245.593C94.3006 246.802 95.1298 247.119 95.6947 247.119C96.2485 247.119 97.0897 246.802 97.0897 245.593L97.0883 244.205ZM108.36 244.182L108.358 245.84C108.358 247.088 107.617 247.602 106.905 247.602C106.191 247.602 105.447 247.088 105.447 245.84L105.448 244.153C105.448 244.153 105.451 242.995 105.451 242.521C105.451 241.279 106.196 240.768 106.905 240.768C107.614 240.768 108.358 241.279 108.358 242.521C108.358 242.995 108.357 243.873 108.361 244.187L108.359 244.183L108.36 244.182ZM106.931 239.797C104.059 239.797 101.732 241.765 101.732 244.192C101.732 246.619 104.061 248.586 106.931 248.586C109.802 248.586 112.129 246.619 112.129 244.192C112.129 241.765 109.802 239.797 106.931 239.797ZM44.5849 238.792V236.387H48.1501V238.792H44.5849ZM44.5929 248.158V240.331L48.1501 240.332V248.158L44.5929 248.158ZM62.4389 248.158L62.4402 240.347H60.5056V239.186L62.4411 239.185L62.4385 237.6H65.9983V239.183H67.9245V240.347H65.9983L66.0009 248.158H62.4389ZM30.1168 248.158L30.1181 236.39H33.8036L38.9019 244.597L38.8992 236.39H42.5569V248.158H38.905L33.7793 239.951V248.158H30.1168Z" fill="white"/>
<path d="M8.46481 140.853C7.18101 140.853 5.952 140.673 4.77778 140.313C3.60357 139.938 2.67203 139.46 1.98315 138.881L3.03995 136.509C3.69751 137.026 4.51163 137.456 5.48231 137.801C6.45299 138.145 7.44716 138.317 8.46481 138.317C9.3259 138.317 10.0226 138.223 10.5549 138.035C11.0872 137.848 11.4786 137.597 11.7291 137.284C11.9796 136.955 12.1049 136.587 12.1049 136.18C12.1049 135.679 11.9248 135.28 11.5647 134.982C11.2046 134.669 10.735 134.427 10.1557 134.254C9.59206 134.067 8.95798 133.894 8.25345 133.738C7.56458 133.581 6.86788 133.401 6.16335 133.198C5.47448 132.978 4.84041 132.704 4.26113 132.376C3.69751 132.031 3.23565 131.577 2.87556 131.014C2.51546 130.45 2.33542 129.73 2.33542 128.853C2.33542 127.961 2.57026 127.147 3.03995 126.411C3.52529 125.659 4.2533 125.064 5.22398 124.626C6.21032 124.172 7.45499 123.945 8.95798 123.945C9.94432 123.945 10.9228 124.07 11.8935 124.321C12.8642 124.571 13.7096 124.931 14.4298 125.401L13.467 127.773C12.7311 127.334 11.9718 127.013 11.189 126.81C10.4062 126.591 9.65468 126.481 8.9345 126.481C8.08906 126.481 7.40019 126.583 6.86788 126.786C6.35123 126.99 5.96765 127.256 5.71715 127.585C5.48231 127.914 5.36489 128.289 5.36489 128.712C5.36489 129.213 5.53711 129.62 5.88154 129.933C6.24163 130.231 6.70349 130.466 7.26711 130.638C7.84639 130.81 8.4883 130.982 9.19282 131.154C9.89735 131.311 10.5941 131.491 11.2829 131.695C11.9875 131.898 12.6215 132.164 13.1851 132.493C13.7644 132.822 14.2263 133.268 14.5707 133.832C14.9308 134.395 15.1109 135.108 15.1109 135.969C15.1109 136.846 14.8682 137.66 14.3828 138.411C13.9132 139.147 13.1852 139.742 12.1988 140.196C11.2125 140.634 9.9678 140.853 8.46481 140.853Z" fill="white"/>
<path d="M39.2975 140.853C37.043 140.853 35.2738 140.219 33.99 138.951C32.7219 137.683 32.0878 135.851 32.0878 133.456V124.18H35.1407V133.339C35.1407 135.029 35.5008 136.258 36.221 137.026C36.9569 137.793 37.9902 138.176 39.3209 138.176C40.6517 138.176 41.6772 137.793 42.3974 137.026C43.1176 136.258 43.4776 135.029 43.4776 133.339V124.18H46.4836V133.456C46.4836 135.851 45.8417 137.683 44.5579 138.951C43.2898 140.219 41.5363 140.853 39.2975 140.853Z" fill="white"/>
<path d="M64.8498 140.619V124.18H71.6133C73.0693 124.18 74.314 124.415 75.3473 124.884C76.3962 125.354 77.2025 126.027 77.7661 126.904C78.3298 127.781 78.6116 128.822 78.6116 130.027C78.6116 131.233 78.3298 132.274 77.7661 133.151C77.2025 134.027 76.3962 134.701 75.3473 135.17C74.314 135.64 73.0693 135.875 71.6133 135.875H66.5407L67.9028 134.442V140.619H64.8498ZM67.9028 134.771L66.5407 133.292H71.4724C72.8188 133.292 73.8286 133.01 74.5018 132.446C75.1907 131.867 75.5351 131.061 75.5351 130.027C75.5351 128.978 75.1907 128.172 74.5018 127.608C73.8286 127.045 72.8188 126.763 71.4724 126.763H66.5407L67.9028 125.26V134.771Z" fill="white"/>
<path d="M98.569 131.014H106.742V133.526H98.569V131.014ZM98.8038 138.059H108.08V140.619H95.7509V124.18H107.751V126.739H98.8038V138.059Z" fill="white"/>
<path d="M125.574 140.619V124.18H132.338C133.794 124.18 135.038 124.415 136.072 124.884C137.12 125.354 137.927 126.027 138.49 126.904C139.054 127.781 139.336 128.822 139.336 130.027C139.336 131.233 139.054 132.274 138.49 133.151C137.927 134.012 137.12 134.677 136.072 135.147C135.038 135.601 133.794 135.828 132.338 135.828H127.265L128.627 134.442V140.619H125.574ZM136.33 140.619L132.173 134.654H135.437L139.618 140.619H136.33ZM128.627 134.771L127.265 133.315H132.197C133.543 133.315 134.553 133.025 135.226 132.446C135.915 131.867 136.259 131.061 136.259 130.027C136.259 128.978 135.915 128.172 135.226 127.608C134.553 127.045 133.543 126.763 132.197 126.763H127.265L128.627 125.26V134.771Z" fill="white"/>
<path d="M0 186.648V156.51H5.59708V181.912H21.355V186.648H0Z" fill="white"/>
<path d="M28.0116 186.648L41.5738 156.51H47.0848L60.69 186.648H54.8346L43.1668 159.481H45.4057L33.781 186.648H28.0116ZM34.2546 179.673L35.7615 175.282H52.0361L53.543 179.673H34.2546Z" fill="white"/>
<path d="M70.981 186.648V156.51H75.5879L88.7625 178.511H86.3515L99.3109 156.51H103.918L103.961 186.648H98.6651L98.622 164.819H99.7414L88.7195 183.204H86.2223L75.0282 164.819H76.3198V186.648H70.981Z" fill="white"/>
<path d="M118.56 186.648V156.51H130.959C133.629 156.51 135.911 156.94 137.805 157.801C139.728 158.662 141.206 159.897 142.24 161.504C143.273 163.111 143.79 165.02 143.79 167.23C143.79 169.44 143.273 171.349 142.24 172.957C141.206 174.564 139.728 175.798 137.805 176.659C135.911 177.52 133.629 177.951 130.959 177.951H121.66L124.157 175.325V186.648H118.56ZM124.157 175.927L121.66 173.215H130.701C133.169 173.215 135.021 172.698 136.255 171.665C137.518 170.603 138.149 169.125 138.149 167.23C138.149 165.307 137.518 163.829 136.255 162.796C135.021 161.762 133.169 161.246 130.701 161.246H121.66L124.157 158.49V175.927Z" fill="white"/>
<path fill-rule="evenodd" clip-rule="evenodd" d="M22.6613 67.7552C21.2264 62.8209 21.3018 56.0479 23.1283 45.9016C24.686 40.3631 26.8281 35.3089 29.4567 30.8011C30.7432 34.6605 31.454 38.8985 31.454 43.3454C31.454 53.0745 28.0515 61.8042 22.6613 67.7552ZM105.453 87.6209C112.916 84.1543 118.612 78.9611 121.888 72.0381C125.492 64.4247 125.982 55.1134 123.256 44.4453C116.725 18.8955 94.7987 3.37811e-05 69.9914 0C45.1603 -3.3781e-05 24.5555 17.5164 17.0577 44.3799L17.019 44.5184L16.9934 44.6599C14.7257 57.1847 14.7132 66.2233 18.0707 73.2219C21.2433 79.835 27.1313 84.0342 35.1237 87.7664C36.2018 93.0198 38.4773 97.6049 43.0412 101.096C48.8025 105.502 57.682 107.732 70.7548 108.283L70.89 108.289L71.0251 108.283C83.6518 107.731 92.0491 105.492 97.5645 101.046C101.947 97.514 104.156 92.879 105.453 87.6209ZM41.2639 86.569L41.3152 86.2539C42.0796 81.555 44.029 78.2668 48.0047 75.9852C52.2271 73.562 59.055 72.0868 69.9914 72.0868C80.8345 72.0868 88.0205 73.8561 92.4636 76.4545C96.744 78.9578 98.5498 82.2509 98.7905 85.9583L98.9117 87.8243C97.8074 91.4432 96.1914 94.1487 93.6193 96.222C89.7212 99.364 83.0531 101.523 70.8849 102.068C58.2222 101.522 51.0212 99.3544 46.8611 96.1725C43.841 93.8627 42.1343 90.7845 41.2639 86.569ZM118.007 64.1855C112.533 58.2315 109.069 49.4328 109.069 39.6167C109.069 36.2106 109.486 32.9269 110.259 29.8421C113.318 34.6886 115.692 40.1182 117.189 45.974C118.998 53.0538 119.157 59.1075 118.007 64.1855ZM59.815 7.38155C63.1045 6.61124 66.5089 6.21438 69.9914 6.21438C72.7191 6.21439 75.4184 6.48013 78.0649 6.99159C88.1039 10.3771 95.2986 19.5323 95.2986 30.2952C95.2986 43.9378 83.7388 54.9973 69.4791 54.9973C55.2194 54.9973 43.6596 43.9378 43.6596 30.2952C43.6596 19.9217 50.343 11.0417 59.815 7.38155Z" fill="white"/>
<path d="M61.0674 84.1518C61.0674 88.8354 60.1912 92.6322 59.1103 92.6322C58.0295 92.6322 57.1533 88.8354 57.1533 84.1518C57.1533 79.4682 58.0295 75.6714 59.1103 75.6714C60.1912 75.6714 61.0674 79.4682 61.0674 84.1518Z" fill="white"/>
<path d="M83.2469 84.1518C83.2469 88.8354 82.3707 92.6322 81.2899 92.6322C80.2091 92.6322 79.3329 88.8354 79.3329 84.1518C79.3329 79.4682 80.2091 75.6714 81.2899 75.6714C82.3707 75.6714 83.2469 79.4682 83.2469 84.1518Z" fill="white"/>
</svg>
