<?xml version="1.0" encoding="UTF-8" standalone="no"?>
<svg
   width="18"
   height="19"
   viewBox="0 0 18 19"
   fill="none"
   version="1.1"
   id="svg441"
   sodipodi:docname="MushroomIco.svg"
   inkscape:version="1.2.2 (b0a8486541, 2022-12-01)"
   xmlns:inkscape="http://www.inkscape.org/namespaces/inkscape"
   xmlns:sodipodi="http://sodipodi.sourceforge.net/DTD/sodipodi-0.dtd"
   xmlns="http://www.w3.org/2000/svg"
   xmlns:svg="http://www.w3.org/2000/svg">
  <defs
     id="defs445" />
  <sodipodi:namedview
     id="namedview443"
     pagecolor="#505050"
     bordercolor="#ffffff"
     borderopacity="1"
     inkscape:showpageshadow="0"
     inkscape:pageopacity="0"
     inkscape:pagecheckerboard="1"
     inkscape:deskcolor="#505050"
     showgrid="false"
     inkscape:zoom="32.415264"
     inkscape:cx="10.08784"
     inkscape:cy="8.9001282"
     inkscape:window-width="1920"
     inkscape:window-height="1056"
     inkscape:window-x="0"
     inkscape:window-y="0"
     inkscape:window-maximized="1"
     inkscape:current-layer="svg441" />
  <path
     fill-rule="evenodd"
     clip-rule="evenodd"
     d="M1.19204 11.5864C0.95637 10.7759 0.968749 9.66352 1.26873 7.99706C1.52459 7.08739 1.8764 6.25727 2.30814 5.5169C2.51944 6.15078 2.63619 6.84685 2.63619 7.57721C2.63619 9.17515 2.07735 10.609 1.19204 11.5864ZM14.7901 14.8492C16.0159 14.2798 16.9514 13.4269 17.4895 12.2898C18.0813 11.0394 18.1619 9.51005 17.714 7.75788C16.6414 3.56147 13.0402 0.458013 8.9657 0.458008C4.88736 0.458002 1.50315 3.33496 0.27168 7.74713L0.26533 7.76988L0.261123 7.79312C-0.111341 9.85023 -0.113392 11.3348 0.43806 12.4842C0.959138 13.5704 1.92621 14.2601 3.23891 14.8731C3.41598 15.7359 3.78971 16.489 4.53931 17.0623C5.48556 17.786 6.94397 18.1523 9.09109 18.2428L9.11329 18.2437L9.13549 18.2428C11.2093 18.1521 12.5885 17.7844 13.4944 17.0543C14.2142 16.4741 14.577 15.7128 14.7901 14.8492ZM4.2474 14.6764L4.25582 14.6247C4.38137 13.8529 4.70155 13.3128 5.35454 12.9381C6.04804 12.5401 7.16947 12.2978 8.9657 12.2978C10.7466 12.2978 11.9269 12.5884 12.6566 13.0152C13.3597 13.4263 13.6563 13.9672 13.6958 14.5761L13.7157 14.8826C13.5343 15.477 13.2689 15.9213 12.8464 16.2619C12.2062 16.7779 11.111 17.1325 9.11246 17.2221C7.03269 17.1323 5.84998 16.7763 5.1667 16.2537C4.67066 15.8744 4.39035 15.3688 4.2474 14.6764ZM16.8519 11.0001C15.9528 10.0222 15.384 8.57703 15.384 6.96481C15.384 6.40537 15.4525 5.86605 15.5795 5.35939C16.0818 6.15538 16.4717 7.04718 16.7175 8.00894C17.0148 9.17176 17.0408 10.166 16.8519 11.0001ZM7.29429 1.67038C7.83458 1.54386 8.39373 1.47868 8.9657 1.47868C9.41371 1.47868 9.85707 1.52233 10.2917 1.60633C11.9406 2.16238 13.1223 3.66606 13.1223 5.4338C13.1223 7.67451 11.2236 9.49098 8.88157 9.49098C6.5395 9.49098 4.64088 7.67451 4.64088 5.4338C4.64088 3.73002 5.73859 2.27154 7.29429 1.67038Z"
     fill="white"
     id="path435" />
  <path
     d="M7.50003 14.2791C7.50003 15.0483 7.35613 15.6719 7.17861 15.6719C7.00109 15.6719 6.85718 15.0483 6.85718 14.2791C6.85718 13.5098 7.00109 12.8862 7.17861 12.8862C7.35613 12.8862 7.50003 13.5098 7.50003 14.2791Z"
     fill="white"
     id="path437" />
  <path
     d="M11.1429 14.2791C11.1429 15.0483 10.9989 15.6719 10.8214 15.6719C10.6439 15.6719 10.5 15.0483 10.5 14.2791C10.5 13.5098 10.6439 12.8862 10.8214 12.8862C10.9989 12.8862 11.1429 13.5098 11.1429 14.2791Z"
     fill="white"
     id="path439" />
</svg>
