<?xml version="1.0" encoding="UTF-8" standalone="no"?>
<svg
   width="119"
   height="25"
   viewBox="0 0 119 25"
   fill="none"
   version="1.1"
   id="svg723"
   sodipodi:docname="NintendoLogoIco.svg"
   inkscape:version="1.2.2 (b0a8486541, 2022-12-01)"
   xmlns:inkscape="http://www.inkscape.org/namespaces/inkscape"
   xmlns:sodipodi="http://sodipodi.sourceforge.net/DTD/sodipodi-0.dtd"
   xmlns="http://www.w3.org/2000/svg"
   xmlns:svg="http://www.w3.org/2000/svg">
  <defs
     id="defs727" />
  <sodipodi:namedview
     id="namedview725"
     pagecolor="#505050"
     bordercolor="#ffffff"
     borderopacity="1"
     inkscape:showpageshadow="0"
     inkscape:pageopacity="0"
     inkscape:pagecheckerboard="1"
     inkscape:deskcolor="#505050"
     showgrid="false"
     inkscape:zoom="10.957983"
     inkscape:cx="59.5"
     inkscape:cy="12.547929"
     inkscape:window-width="1920"
     inkscape:window-height="1056"
     inkscape:window-x="0"
     inkscape:window-y="0"
     inkscape:window-maximized="1"
     inkscape:current-layer="svg723" />
  <path
     fill-rule="evenodd"
     clip-rule="evenodd"
     d="M15.5275 25C6.21974 24.9974 0 19.3588 0 12.5223C0 5.68615 6.23365 -0.0171366 15.513 4.07074e-05H103.204C112.483 -0.017577 118.717 5.68571 118.717 12.5223C118.717 19.3588 112.497 24.9969 103.189 25H15.5275ZM15.5558 3.07565C8.18702 3.08754 3.66403 7.29773 3.66403 12.5064C3.66403 17.7133 8.15868 21.9587 15.5558 21.9354H103.161C110.558 21.957 115.054 17.7133 115.054 12.5064C115.054 7.29906 110.531 3.0893 103.162 3.07697L15.5558 3.07565ZM107.873 7.4717C108.543 7.4717 108.876 7.66594 108.876 8.04957C108.876 8.31383 108.683 8.51335 108.363 8.58206L108.889 9.47837H108.253L107.804 8.65606H107.525V9.47837H106.953V7.4717H107.873ZM107.821 6.68728C106.651 6.68728 105.702 7.49857 105.702 8.49882C105.702 9.49862 106.651 10.3099 107.821 10.3099C108.991 10.3099 109.94 9.49862 109.94 8.49882C109.94 7.49901 108.991 6.68728 107.821 6.68728ZM109.535 8.4997C109.535 9.30835 108.767 9.96461 107.821 9.96461C106.875 9.96461 106.107 9.30835 106.107 8.4997C106.107 7.69105 106.875 7.03523 107.821 7.03523C108.767 7.03523 109.535 7.69017 109.535 8.4997ZM107.525 8.36228H107.803C108.13 8.36228 108.288 8.27728 108.288 8.07775C108.288 7.86898 108.119 7.77869 107.775 7.77869H107.525V8.36228ZM59.6355 13.2662C59.6288 12.5804 59.6464 12.1219 59.9097 11.7312C60.2327 11.2489 60.8274 11.0195 61.3663 11.0168H61.3648C61.9043 11.0195 62.4984 11.2485 62.8214 11.7312C63.0847 12.1237 63.0955 12.5813 63.0894 13.2675L59.635 13.2662H59.6355ZM63.0754 15.6256C63.0754 15.6256 63.0785 15.6609 63.0785 16.1C63.0785 17.531 61.9769 17.8494 61.3648 17.8494C60.7532 17.8494 59.6325 17.5314 59.6325 16.1C59.6325 15.6714 59.6355 14.4844 59.6355 14.4844C59.6355 14.4844 67.4346 14.4871 67.4346 14.4831C67.4346 12.0563 64.6929 10.0457 61.3256 10.0457C57.9578 10.0457 55.229 12.0131 55.229 14.44C55.229 16.8672 57.9578 18.8334 61.3256 18.8334C64.1194 18.8334 66.4793 17.4711 67.1996 15.6234L63.0754 15.6261V15.6256ZM76.1023 10.176C77.6507 10.1381 80.7907 11.0045 80.7691 14.103C80.766 14.6527 80.7675 18.3616 80.7675 18.3616H76.6542V13.2217C76.6542 12.5399 75.8911 11.781 74.7621 11.781C73.6347 11.781 72.7959 12.5399 72.7959 13.2217C72.7959 13.556 72.8005 18.3616 72.8005 18.3616H68.6908L68.6939 10.5359L72.8026 10.5332C72.8026 10.5332 72.798 11.1626 72.8026 11.3564C73.594 10.7107 74.7353 10.2095 76.1023 10.176ZM42.4562 10.176C44.0045 10.1381 47.1445 11.0045 47.1229 14.103C47.1198 14.6527 47.1213 18.3616 47.1213 18.3616H43.008V13.2217C43.008 12.5399 42.2449 11.781 41.1159 11.781C39.9891 11.781 39.1502 12.5399 39.1502 13.2217C39.1502 13.556 39.1549 18.3616 39.1549 18.3616H35.0446L35.0431 10.5359L39.1564 10.5332C39.1564 10.5332 39.1518 11.1626 39.1564 11.3564C39.9478 10.7107 41.0876 10.2095 42.4562 10.176ZM89.6924 6.59523H93.779V18.3639H89.6862L89.6847 17.9111C88.1002 18.7611 86.3123 18.7598 84.92 18.2048C84.5465 18.0564 82.0887 17.0487 82.0887 14.325C82.0887 12.2589 84.3682 10.0029 87.3526 10.2267C88.3347 10.3007 89.0334 10.6068 89.6955 10.9248C89.6924 9.11368 89.6924 6.59478 89.6924 6.59478V6.59523ZM89.7223 14.4113V13.0125C89.7223 11.8021 88.7448 11.4938 88.1018 11.4938C87.4428 11.4938 86.4777 11.8026 86.4777 13.0125L86.4792 14.4074L86.4777 15.7992C86.4777 17.0082 87.4428 17.3248 88.1002 17.3248C88.7448 17.3248 89.7238 17.0082 89.7238 15.7992L89.7223 14.4113ZM102.841 14.3884L102.839 16.0458C102.839 17.294 101.977 17.8085 101.148 17.8085C100.317 17.8085 99.451 17.2936 99.451 16.0458L99.4525 14.3589C99.4525 14.3589 99.4556 13.2014 99.4556 12.7271C99.4556 11.4846 100.323 10.9737 101.147 10.9737C101.973 10.9737 102.839 11.4846 102.839 12.7271C102.839 13.2014 102.837 14.0788 102.842 14.3928L102.84 14.3889L102.841 14.3884ZM101.178 10.0034C97.8351 10.0034 95.1269 11.9708 95.1269 14.3981C95.1269 16.8249 97.8372 18.7924 101.178 18.7924C104.52 18.7924 107.228 16.8249 107.228 14.3981C107.228 11.9708 104.52 10.0034 101.178 10.0034ZM28.6141 8.99828V6.59259H32.7635V8.99828H28.6141ZM28.6234 18.3643V10.5372L32.7635 10.5385V18.3639L28.6234 18.3643ZM49.3942 18.3643L49.3957 10.5535H47.144V9.39203L49.3967 9.39072L49.3937 7.806H53.5369V9.38939H55.7788V10.5535H53.5369L53.54 18.3643H49.3942ZM11.7748 18.3643L11.7763 6.59566H16.0659L21.9997 14.8029L21.9966 6.59566H26.2537V18.3643H22.0033L16.0376 10.1575V18.3643H11.7748Z"
     fill="white"
     id="path721" />
</svg>
