<?xml version="1.0" encoding="UTF-8" standalone="no"?>
<svg
   width="21"
   height="21"
   viewBox="0 0 21 21"
   fill="none"
   version="1.1"
   id="svg4"
   sodipodi:docname="QuestionMarkIco.svg"
   inkscape:version="1.2.2 (b0a8486541, 2022-12-01)"
   xmlns:inkscape="http://www.inkscape.org/namespaces/inkscape"
   xmlns:sodipodi="http://sodipodi.sourceforge.net/DTD/sodipodi-0.dtd"
   xmlns="http://www.w3.org/2000/svg"
   xmlns:svg="http://www.w3.org/2000/svg">
  <defs
     id="defs8" />
  <sodipodi:namedview
     id="namedview6"
     pagecolor="#505050"
     bordercolor="#ffffff"
     borderopacity="1"
     inkscape:showpageshadow="0"
     inkscape:pageopacity="0"
     inkscape:pagecheckerboard="1"
     inkscape:deskcolor="#505050"
     showgrid="false"
     inkscape:zoom="29.328096"
     inkscape:cx="18.51467"
     inkscape:cy="9.9051778"
     inkscape:window-width="1920"
     inkscape:window-height="1056"
     inkscape:window-x="0"
     inkscape:window-y="0"
     inkscape:window-maximized="1"
     inkscape:current-layer="svg4" />
  <path
     d="m 11.568511,1.506636 c 4.8326,0 8.75,3.91738 8.75,8.75 0,4.8326 -3.9174,8.75 -8.75,8.75 -4.8326204,0 -8.7500004,-3.9174 -8.7500004,-8.75 0,-4.83262 3.91738,-8.75 8.7500004,-8.75 z m 0,12.25 c -0.2321,0 -0.4546,0.0922 -0.61872,0.2563 -0.16409,0.1641 -0.25628,0.3866 -0.25628,0.6187 0,0.2321 0.09219,0.4546 0.25628,0.6187 0.16412,0.1641 0.38662,0.2563 0.61872,0.2563 0.2321,0 0.4546,-0.0922 0.6187,-0.2563 0.1641,-0.1641 0.2563,-0.3866 0.2563,-0.6187 0,-0.2321 -0.0922,-0.4546 -0.2563,-0.6187 -0.1641,-0.1641 -0.3866,-0.2563 -0.6187,-0.2563 z m 0,-8.3125 c -0.84123,0 -1.6480104,0.33418 -2.2428504,0.92902 -0.59485,0.59484 -0.92903,1.40162 -0.92903,2.24286 0,0.23206 0.09219,0.45462 0.25629,0.61871 0.16409,0.1641 0.38665,0.25629 0.61871,0.25629 0.23207,0 0.45463,-0.09219 0.61872,-0.25629 0.1641004,-0.16409 0.2562804,-0.38665 0.2562804,-0.61871 2.9e-4,-0.2581 0.07083,-0.51125 0.20404,-0.7323 0.13321,-0.22106 0.32408,-0.40169 0.55214,-0.52253 0.2281,-0.12083 0.4847,-0.17731 0.7424,-0.16338 0.2577,0.01392 0.5068,0.09774 0.7205,0.24244 0.2137,0.14471 0.384,0.34486 0.4926,0.57899 0.1087,0.23412 0.1515,0.4934 0.124,0.75002 -0.0276,0.25662 -0.1244,0.50091 -0.2802,0.70667 -0.1558,0.20577 -0.3647,0.36521 -0.6042,0.46131 -0.5915,0.2363 -1.4044,0.8418 -1.4044,1.8506 v 0.2188 c 0,0.2321 0.09219,0.4546 0.25628,0.6187 0.16412,0.1641 0.38662,0.2563 0.61872,0.2563 0.2321,0 0.4546,-0.0922 0.6187,-0.2563 0.1641,-0.1641 0.2563,-0.3866 0.2563,-0.6187 0,-0.2135 0.0437,-0.3203 0.2284,-0.4113 l 0.0761,-0.035 c 0.6832,-0.2748 1.2495,-0.7787 1.6019,-1.4254 0.3523,-0.64665 0.4688,-1.39574 0.3293,-2.11884 -0.1394,-0.7231 -0.5261,-1.37517 -1.0936,-1.84442 -0.5676,-0.46926 -1.2807,-0.72647 -2.0171,-0.72754 z"
     fill="#ffffff"
     id="path2" />
</svg>
