<?xml version="1.0" encoding="UTF-8" standalone="no"?>
<svg
   width="17"
   height="17"
   viewBox="0 0 17 17"
   fill="none"
   version="1.1"
   id="svg1506"
   sodipodi:docname="SpeakerIco.svg"
   inkscape:version="1.2.2 (b0a8486541, 2022-12-01)"
   xmlns:inkscape="http://www.inkscape.org/namespaces/inkscape"
   xmlns:sodipodi="http://sodipodi.sourceforge.net/DTD/sodipodi-0.dtd"
   xmlns="http://www.w3.org/2000/svg"
   xmlns:svg="http://www.w3.org/2000/svg">
  <defs
     id="defs1510" />
  <sodipodi:namedview
     id="namedview1508"
     pagecolor="#505050"
     bordercolor="#ffffff"
     borderopacity="1"
     inkscape:showpageshadow="0"
     inkscape:pageopacity="0"
     inkscape:pagecheckerboard="1"
     inkscape:deskcolor="#505050"
     showgrid="false"
     inkscape:zoom="25.617647"
     inkscape:cx="10.929966"
     inkscape:cy="6.8117107"
     inkscape:window-width="1920"
     inkscape:window-height="1056"
     inkscape:window-x="0"
     inkscape:window-y="0"
     inkscape:window-maximized="1"
     inkscape:current-layer="svg1506" />
  <path
     d="M15.6907 6.31953V0.894737C15.6907 0.657438 15.5989 0.429858 15.4354 0.262062C15.2719 0.0942666 15.0502 0 14.819 0H13.9473C12.2222 1.77068 8.98119 2.76205 6.97365 3.23268V12.8726C8.98119 13.3432 12.2222 14.3346 13.9473 16.1053H14.819C15.0502 16.1053 15.2719 16.011 15.4354 15.8432C15.5989 15.6754 15.6907 15.4478 15.6907 15.2105V9.78574C16.0653 9.68687 16.3973 9.46293 16.6343 9.14918C16.8714 8.83542 17 8.44966 17 8.05263C17 7.6556 16.8714 7.26984 16.6343 6.95609C16.3973 6.64233 16.0653 6.41839 15.6907 6.31953ZM1.74341 3.57895C1.28103 3.57895 0.837587 3.76748 0.510634 4.10307C0.18368 4.43866 0 4.89382 0 5.36842V10.7368C0 11.2114 0.18368 11.6666 0.510634 12.0022C0.837587 12.3378 1.28103 12.5263 1.74341 12.5263H2.61512L3.48683 17H5.23024V3.57895H1.74341Z"
     fill="white"
     id="path1504" />
</svg>
