<svg width="21" height="22" viewBox="0 0 21 22" fill="none" xmlns="http://www.w3.org/2000/svg">
<path d="M12.5202 22H8.47983C8.21047 22 7.97703 21.9083 7.7795 21.725C7.58197 21.5417 7.46525 21.3125 7.42934 21.0375L7.10611 18.48C6.87267 18.3883 6.65251 18.2783 6.44565 18.15C6.23878 18.0217 6.03694 17.8842 5.84014 17.7375L3.49674 18.7275C3.24534 18.8192 2.99394 18.8283 2.74254 18.755C2.49114 18.6817 2.29361 18.5258 2.14995 18.2875L0.156716 14.74C0.0130597 14.5017 -0.031833 14.245 0.0220382 13.97C0.0759095 13.695 0.210588 13.475 0.426073 13.31L2.44625 11.7425C2.42829 11.6142 2.41931 11.4902 2.41931 11.3707V10.6293C2.41931 10.5098 2.42829 10.3858 2.44625 10.2575L0.426073 8.69C0.210588 8.525 0.0759095 8.305 0.0220382 8.03C-0.031833 7.755 0.0130597 7.49833 0.156716 7.26L2.14995 3.7125C2.27565 3.45583 2.46851 3.29523 2.72853 3.2307C2.98855 3.16617 3.24462 3.1801 3.49674 3.2725L5.84014 4.2625C6.03766 4.11583 6.24417 3.97833 6.45965 3.85C6.67514 3.72167 6.89063 3.61167 7.10611 3.52L7.42934 0.9625C7.46525 0.6875 7.58197 0.458333 7.7795 0.275C7.97703 0.0916667 8.21047 0 8.47983 0H12.5202C12.7895 0 13.023 0.0916667 13.2205 0.275C13.418 0.458333 13.5347 0.6875 13.5707 0.9625L13.8939 3.52C14.1273 3.61167 14.3475 3.72167 14.5544 3.85C14.7612 3.97833 14.9631 4.11583 15.1599 4.2625L17.5033 3.2725C17.7547 3.18083 18.0061 3.17167 18.2575 3.245C18.5089 3.31833 18.7064 3.47417 18.85 3.7125L20.8433 7.26C20.9869 7.49833 21.0318 7.755 20.978 8.03C20.9241 8.305 20.7894 8.525 20.5739 8.69L18.5538 10.2575C18.5717 10.3858 18.5807 10.5098 18.5807 10.6293V11.3707C18.5807 11.4902 18.5627 11.6142 18.5268 11.7425L20.547 13.31C20.7625 13.475 20.8972 13.695 20.951 13.97C21.0049 14.245 20.96 14.5017 20.8163 14.74L18.8231 18.26C18.6795 18.4983 18.4773 18.6589 18.2165 18.7418C17.9558 18.8247 17.7001 18.8199 17.4494 18.7275L15.1599 17.7375C14.9623 17.8842 14.7558 18.0217 14.5403 18.15C14.3249 18.2783 14.1094 18.3883 13.8939 18.48L13.5707 21.0375C13.5347 21.3125 13.418 21.5417 13.2205 21.725C13.023 21.9083 12.7895 22 12.5202 22ZM10.5539 14.85C11.5954 14.85 12.4843 14.4742 13.2205 13.7225C13.9567 12.9708 14.3249 12.0633 14.3249 11C14.3249 9.93667 13.9567 9.02917 13.2205 8.2775C12.4843 7.52583 11.5954 7.15 10.5539 7.15C9.4944 7.15 8.60086 7.52583 7.87324 8.2775C7.14562 9.02917 6.78216 9.93667 6.78288 11C6.78288 12.0633 7.14633 12.9708 7.87324 13.7225C8.60014 14.4742 9.49369 14.85 10.5539 14.85Z" fill="white"/>
</svg>
