<svg width="8" height="13" viewBox="0 0 8 13" fill="none" xmlns="http://www.w3.org/2000/svg">
<path d="M1.43339 0.249967L7.05005 5.84997C7.11672 5.91663 7.16405 5.98886 7.19205 6.06663C7.22005 6.14441 7.23383 6.22774 7.23339 6.31663C7.23339 6.40552 7.21961 6.48886 7.19205 6.56663C7.1645 6.64441 7.11717 6.71663 7.05005 6.7833L1.43339 12.4C1.27783 12.5555 1.08339 12.6333 0.850055 12.6333C0.616722 12.6333 0.416722 12.55 0.250055 12.3833C0.0833884 12.2166 5.50975e-05 12.0222 5.50975e-05 11.8C5.50975e-05 11.5777 0.0833884 11.3833 0.250055 11.2166L5.15005 6.31663L0.250055 1.41663C0.0944995 1.26108 0.0167215 1.0693 0.0167215 0.841301C0.0167215 0.613301 0.100055 0.416189 0.266722 0.249967C0.433388 0.0832999 0.627833 -3.34372e-05 0.850055 -3.34372e-05C1.07228 -3.34372e-05 1.26672 0.0832999 1.43339 0.249967Z" fill="white"/>
</svg>
